<svg id="visual" viewBox="0 0 1920 1080" width="1920" height="1080" xmlns="http://www.w3.org/2000/svg" xmlns:xlink="http://www.w3.org/1999/xlink" version="1.1"><rect x="0" y="0" width="1920" height="1080" fill="#FFFFFF"></rect><path d="M0 521L45.7 507.5C91.3 494 182.7 467 274.2 489C365.7 511 457.3 582 548.8 581.5C640.3 581 731.7 509 823 448.8C914.3 388.7 1005.7 340.3 1097 370C1188.3 399.7 1279.7 507.3 1371.2 591.8C1462.7 676.3 1554.3 737.7 1645.8 748C1737.3 758.3 1828.7 717.7 1874.3 697.3L1920 677L1920 0L1874.3 0C1828.7 0 1737.3 0 1645.8 0C1554.3 0 1462.7 0 1371.2 0C1279.7 0 1188.3 0 1097 0C1005.7 0 914.3 0 823 0C731.7 0 640.3 0 548.8 0C457.3 0 365.7 0 274.2 0C182.7 0 91.3 0 45.7 0L0 0Z" fill="#0066FF" stroke-linecap="round" stroke-linejoin="miter"></path></svg>